<svg xmlns="http://www.w3.org/2000/svg" viewBox="0 0 64 64">
<rect width="64" height="64" fill="#3a475b"/>
<rect x="8" y="0" width="8" height="8" fill="#2a3443"/>
<rect x="24" y="0" width="8" height="8" fill="#2a3443"/>
<rect x="40" y="0" width="8" height="8" fill="#2a3443"/>
<rect x="56" y="0" width="8" height="8" fill="#2a3443"/>
<rect x="0" y="8" width="8" height="8" fill="#2a3443"/>
<rect x="16" y="8" width="8" height="8" fill="#2a3443"/>
<rect x="32" y="8" width="8" height="8" fill="#2a3443"/>
<rect x="48" y="8" width="8" height="8" fill="#2a3443"/>
<rect x="8" y="16" width="8" height="8" fill="#2a3443"/>
<rect x="24" y="16" width="8" height="8" fill="#2a3443"/>
<rect x="40" y="16" width="8" height="8" fill="#2a3443"/>
<rect x="56" y="16" width="8" height="8" fill="#2a3443"/>
<rect x="0" y="24" width="8" height="8" fill="#2a3443"/>
<rect x="16" y="24" width="8" height="8" fill="#2a3443"/>
<rect x="32" y="24" width="8" height="8" fill="#2a3443"/>
<rect x="48" y="24" width="8" height="8" fill="#2a3443"/>
<rect x="8" y="32" width="8" height="8" fill="#2a3443"/>
<rect x="24" y="32" width="8" height="8" fill="#2a3443"/>
<rect x="40" y="32" width="8" height="8" fill="#2a3443"/>
<rect x="56" y="32" width="8" height="8" fill="#2a3443"/>
<rect x="0" y="40" width="8" height="8" fill="#2a3443"/>
<rect x="16" y="40" width="8" height="8" fill="#2a3443"/>
<rect x="32" y="40" width="8" height="8" fill="#2a3443"/>
<rect x="48" y="40" width="8" height="8" fill="#2a3443"/>
<rect x="8" y="48" width="8" height="8" fill="#2a3443"/>
<rect x="24" y="48" width="8" height="8" fill="#2a3443"/>
<rect x="40" y="48" width="8" height="8" fill="#2a3443"/>
<rect x="56" y="48" width="8" height="8" fill="#2a3443"/>
<rect x="0" y="56" width="8" height="8" fill="#2a3443"/>
<rect x="16" y="56" width="8" height="8" fill="#2a3443"/>
<rect x="32" y="56" width="8" height="8" fill="#2a3443"/>
<rect x="48" y="56" width="8" height="8" fill="#2a3443"/>
<text x="32.0" y="41.6" text-anchor="middle" font-size="44.8" font-family="sans-serif" fill="#6ba7ff" font-weight="bold">Z</text>
</svg>
